HIERARCHY
ROOT hip
{
  OFFSET 0 0 0
  CHANNELS 6 Xposition Yposition Zposition Zrotation Yrotation Xrotation
  JOINT abdomen
  {
    OFFSET 0 20.6881 -0.73152
    CHANNELS 3 Zrotation Xrotation Yrotation
    JOINT chest
    {
      OFFSET 0 11.7043 -0.48768
      CHANNELS 3 Zrotation Xrotation Yrotation
      JOINT neck
      {
        OFFSET 0 22.1894 -2.19456
        CHANNELS 3 Zrotation Xrotation Yrotation
        JOINT head
        {
          OFFSET -0.24384 7.07133 1.2192
          CHANNELS 3 Zrotation Xrotation Yrotation
          JOINT leftEye
          {
            OFFSET 4.14528 8.04674 8.04672
            CHANNELS 3 Zrotation Xrotation Yrotation
            End Site
            {
              OFFSET 1 0 0
            }
          }
          JOINT rightEye
          {
            OFFSET -3.6576 8.04674 8.04672
            CHANNELS 3 Zrotation Xrotation Yrotation
            End Site
            {
              OFFSET 1 0 0
            }
          }
        }
      }
      JOINT rCollar
      {
        OFFSET -2.68224 19.2634 -4.8768
        CHANNELS 3 Zrotation Xrotation Yrotation
        JOINT rShldr
        {
          OFFSET -8.77824 -1.95073 1.46304
          CHANNELS 3 Zrotation Xrotation Yrotation
          JOINT rForeArm
          {
            OFFSET -28.1742 -1.7115 0.48768
            CHANNELS 3 Zrotation Xrotation Yrotation
            JOINT rHand
            {
              OFFSET -22.5879 0.773209 7.07136
              CHANNELS 3 Zrotation Xrotation Yrotation
              JOINT rThumb1
              {
                OFFSET -1.2192 -0.487915 3.41376
                CHANNELS 3 Zrotation Xrotation Yrotation
                JOINT rThumb2
                {
                  OFFSET -3.37035 -0.52449 3.41376
                  CHANNELS 3 Zrotation Xrotation Yrotation
                  End Site
                  {
                    OFFSET -1.78271 -1.18214 1.43049
                  }
                }
              }
              JOINT rIndex1
              {
                OFFSET -7.75947 0.938293 5.60832
                CHANNELS 3 Zrotation Xrotation Yrotation
                JOINT rIndex2
                {
                  OFFSET -2.54057 -0.884171 1.56538
                  CHANNELS 3 Zrotation Xrotation Yrotation
                  End Site
                  {
                    OFFSET -1.62519 -0.234802 1.16502
                  }
                }
              }
              JOINT rMid1
              {
                OFFSET -8.24714 1.18213 3.41376
                CHANNELS 3 Zrotation Xrotation Yrotation
                JOINT rMid2
                {
                  OFFSET -3.10165 -0.590103 1.0647
                  CHANNELS 3 Zrotation Xrotation Yrotation
                  End Site
                  {
                    OFFSET -2.48547 -0.328903 0.83742
                  }
                }
              }
              JOINT rRing1
              {
                OFFSET -8.82822 0.546677 1.51678
                CHANNELS 3 Zrotation Xrotation Yrotation
                JOINT rRing2
                {
                  OFFSET -2.60934 -0.819778 -0.0198488
                  CHANNELS 3 Zrotation Xrotation Yrotation
                  End Site
                  {
                    OFFSET -2.33842 -0.294052 0.168128
                  }
                }
              }
              JOINT rPinky1
              {
                OFFSET -8.27202 -0.0477905 -0.4584
                CHANNELS 3 Zrotation Xrotation Yrotation
                JOINT rPinky2
                {
                  OFFSET -1.82734 -0.647385 -0.700984
                  CHANNELS 3 Zrotation Xrotation Yrotation
                  End Site
                  {
                    OFFSET -1.69225 -0.51767 -0.607171
                  }
                }
              }
            }
          }
        }
      }
      JOINT lCollar
      {
        OFFSET 2.68224 19.2634 -4.8768
        CHANNELS 3 Zrotation Xrotation Yrotation
        JOINT lShldr
        {
          OFFSET 8.77824 -1.95073 1.46304
          CHANNELS 3 Zrotation Xrotation Yrotation
          JOINT lForeArm
          {
            OFFSET 28.1742 -1.7115 0.48768
            CHANNELS 3 Zrotation Xrotation Yrotation
            JOINT lHand
            {
              OFFSET 22.5879 0.773209 7.07136
              CHANNELS 3 Zrotation Xrotation Yrotation
              JOINT lThumb1
              {
                OFFSET 1.2192 -0.487915 3.41376
                CHANNELS 3 Zrotation Xrotation Yrotation
                JOINT lThumb2
                {
                  OFFSET 3.37035 -0.52449 3.41376
                  CHANNELS 3 Zrotation Xrotation Yrotation
                  End Site
                  {
                    OFFSET 1.78271 -1.18214 1.43049
                  }
                }
              }
              JOINT lIndex1
              {
                OFFSET 7.75947 0.938293 5.60832
                CHANNELS 3 Zrotation Xrotation Yrotation
                JOINT lIndex2
                {
                  OFFSET 2.54057 -0.884171 1.56538
                  CHANNELS 3 Zrotation Xrotation Yrotation
                  End Site
                  {
                    OFFSET 1.62519 -0.234802 1.16502
                  }
                }
              }
              JOINT lMid1
              {
                OFFSET 8.24714 1.18213 3.41376
                CHANNELS 3 Zrotation Xrotation Yrotation
                JOINT lMid2
                {
                  OFFSET 3.10165 -0.590103 1.0647
                  CHANNELS 3 Zrotation Xrotation Yrotation
                  End Site
                  {
                    OFFSET 2.48547 -0.328903 0.83742
                  }
                }
              }
              JOINT lRing1
              {
                OFFSET 8.82822 0.546677 1.51678
                CHANNELS 3 Zrotation Xrotation Yrotation
                JOINT lRing2
                {
                  OFFSET 2.60934 -0.819778 -0.0198488
                  CHANNELS 3 Zrotation Xrotation Yrotation
                  End Site
                  {
                    OFFSET 2.33842 -0.294052 0.168128
                  }
                }
              }
              JOINT lPinky1
              {
                OFFSET 8.27202 -0.0477905 -0.4584
                CHANNELS 3 Zrotation Xrotation Yrotation
                JOINT lPinky2
                {
                  OFFSET 1.82734 -0.647385 -0.700984
                  CHANNELS 3 Zrotation Xrotation Yrotation
                  End Site
                  {
                    OFFSET 1.69225 -0.51767 -0.607171
                  }
                }
              }
            }
          }
        }
      }
    }
  }
  JOINT rButtock
  {
    OFFSET -8.77824 4.35084 1.2192
    CHANNELS 3 Zrotation Xrotation Yrotation
    JOINT rThigh
    {
      OFFSET 0 -1.70687 -2.19456
      CHANNELS 3 Zrotation Xrotation Yrotation
      JOINT rShin
      {
        OFFSET 0 -36.8199 0.73152
        CHANNELS 3 Zrotation Xrotation Yrotation
        JOINT rFoot
        {
          OFFSET 0.73152 -45.1104 -5.12064
          CHANNELS 3 Zrotation Xrotation Yrotation
          End Site
          {
            OFFSET -1.1221 -3.69964 12.103
          }
        }
      }
    }
  }
  JOINT lButtock
  {
    OFFSET 8.77824 4.35084 1.2192
    CHANNELS 3 Zrotation Xrotation Yrotation
    JOINT lThigh
    {
      OFFSET 0 -1.70687 -2.19456
      CHANNELS 3 Zrotation Xrotation Yrotation
      JOINT lShin
      {
        OFFSET 0 -36.8199 0.73152
        CHANNELS 3 Zrotation Xrotation Yrotation
        JOINT lFoot
        {
          OFFSET -0.73152 -45.1104 -5.12064
          CHANNELS 3 Zrotation Xrotation Yrotation
          End Site
          {
            OFFSET 1.1221 -3.69964 12.103
          }
        }
      }
    }
  }
}
MOTION
Frames:	5
Frame Time:	0.03333
-2.3328 60.7302 46.804 -99.443186 -87.864668 104.770351 0.178183 5.675998 179.46936 3.363446 5.368157 -161.760858 3.16761 24.735553 -70.895664 29.862191 -10.509239 89.128461 30.946386 -1.504522 -5.431246 19.664993 4.339559 24.662675 -152.78854 -19.027827 169.521509 -41.521356 -8.139818 -11.816147 11.234622 7.751067 -136.661554 -168.692551 18.206558 138.991182 10.02278 -17.022562 -17.403246 -51.484283 20.841079 55.710324 -27.654898 -69.416653 -80.863037 177.967397 -51.848297 62.140399 -164.258266 -23.08207 150.86635 10.518891 -6.872223 7.765375 -7.588669 -32.578179 0.053651 174.104168 -24.433155 -178.989665 -150.799617 -9.51615 -124.268091 -171.005261 7.111526 -97.60714 2.770288 -8.516194 -3.716649 110.485313 -19.577093 -153.956856 3.2833 -25.712068 125.444893 -166.919638 -14.787526 -143.322177 0.100494 -0.327854 -4.747557 116.75618 -60.386775 -173.136091 3.369523 -44.175665 -0.53012 -15.719542 -9.64797 82.114381 67.660168 58.992951 -48.529303 23.056077 58.446209 -16.088092 147.058608 8.793984 175.570153 41.091973 -31.818267 90.881382 -39.745054 76.592472 11.72862 99.927496 -2.56807 110.789951 -15.660141 0.017376 -21.499441 -0.904016 -27.370798 -159.523391 -63.51335 -60.119827 -6.421773 -174.679338 82.217557 -82.513661 -132.195737 72.182712 -48.353817 -169.892286 7.622625 66.34123 69.46706 27.550979 -132.057762 150.768403 -14.591468 -75.528971
-2.6297 61.4278 47.8559 -42.975448 -87.411927 48.163175 -0.015751 6.144663 -179.894655 3.602249 5.328233 -161.331007 5.441039 30.506165 -107.378389 37.401176 7.409558 117.848629 35.159993 -3.559539 -11.202488 21.397316 4.347109 22.718029 -151.424689 -29.192253 173.416906 147.49815 11.849318 -161.575212 -141.921523 -22.489308 52.873344 176.561024 -26.646541 143.07469 -178.286833 -22.019632 105.759418 -175.046516 -59.144909 145.650593 -107.490203 66.128291 103.578389 -37.376898 86.247281 -16.258568 31.034603 -67.749428 7.831601 -142.31978 53.042217 114.240944 -156.039183 -5.958794 173.789505 -14.562239 51.103581 50.407087 6.626728 41.720412 -4.787146 157.239874 -70.333825 153.697515 164.07497 -14.722856 -157.607977 32.572439 16.07363 31.672771 7.03365 -48.221702 132.216787 -167.883493 -15.246833 -142.619603 38.395134 22.609981 -18.749742 -25.8399 -10.813734 19.67349 148.433571 25.708638 -95.041989 -9.204566 -15.764871 -67.294628 32.720126 38.755677 -18.428043 -135.634255 -87.194288 -107.654275 1.767968 16.776247 1.240853 90.127934 44.848947 -71.362879 12.787541 -4.676681 7.860331 119.450902 -35.0274 76.459893 -12.421815 -3.614167 -21.151046 -5.301752 -25.911538 179.022619 -22.344427 -74.882342 53.236564 168.1664 25.842365 -77.108171 -97.877506 46.45448 -55.990303 157.415817 2.708827 -177.960818 47.998563 -70.548138 -61.533402 25.392499 -42.460146 -64.560781
-2.4947 61.206799999999994 48.6053 -13.638739 -79.587404 19.586584 -0.074651 2.485656 157.331952 2.132726 3.312653 -134.713578 6.258946 34.07562 -107.129987 39.681542 5.585576 108.303928 27.503713 6.315835 25.408474 11.146057 1.11887 11.429011 -145.471184 44.473433 156.700319 118.646401 -38.502783 139.131797 175.512224 6.891328 49.122119 -170.180724 13.209935 143.059773 6.336602 -13.316758 -20.013058 29.123802 -5.889648 -2.537367 -8.092588 -68.628891 -63.91687 75.218988 -9.313264 25.376558 -147.15834 28.232888 145.143472 -154.852495 -61.155115 163.580871 -79.403116 -82.019753 -79.526189 159.119409 -57.99789 166.140536 6.035334 -9.378704 -18.875905 128.911165 -65.074698 138.89385 77.84393 56.440905 -72.849749 93.872725 14.313117 -75.468093 -79.434556 -20.324885 85.293463 165.196595 59.545657 -142.699919 177.973424 -12.009415 -80.237022 -63.400037 -43.8813 -64.545073 -168.058709 -23.465793 -112.821635 -129.205402 11.941697 -99.473539 166.234093 8.162521 -138.653722 165.324916 -49.723274 -151.162789 6.26496 48.478874 -2.173231 -146.250572 -15.848356 -151.852724 -36.740187 61.213222 11.286897 101.994691 -8.188168 73.004454 41.99246 -10.429711 30.929879 -60.563802 8.404334 -84.389631 -67.013059 40.12978 -49.923245 9.890291 56.098851 103.515961 -126.496162 64.495873 -39.569804 175.596624 4.973099 47.845156 57.370555 51.209142 -41.486609 6.925346 -2.634055 -14.168906
-2.3399 62.5078 49.1037 -13.726545 -77.584442 20.379872 -0.020548 -0.282935 176.327412 3.161647 -0.914453 -154.789775 13.415151 33.150448 156.978342 -3.45645 42.256922 -157.059008 -10.709292 -6.36123 61.324898 -2.34529 -0.265782 12.92925 2.798423 17.205345 -1.722039 -143.637563 -36.010486 137.920777 -162.069623 30.800011 -93.795756 -6.095973 -10.061124 -1.876457 -28.221111 33.864274 -7.935575 -90.320201 -29.404564 79.816374 -135.354116 4.519453 136.277248 10.86285 75.888406 -5.367095 -17.614891 69.369002 16.652395 2.489971 -65.877412 -0.871903 -20.422819 27.572795 20.466455 124.62324 43.435559 -103.455987 -107.475543 -14.0217 -137.483013 54.378211 -37.131938 -3.942165 159.020506 2.800799 -152.208988 -130.232925 -8.619097 171.404489 27.94575 -20.771677 -67.051491 -12.64031 -19.855222 -9.240883 11.906109 15.352661 -13.396983 -3.793742 -34.367653 40.692904 42.051211 19.018061 -19.884348 -71.769326 86.037207 41.558808 -12.594523 -39.152589 5.23815 159.147059 12.378624 -109.76135 107.36556 84.991128 -112.358998 95.965932 -38.17072 53.599058 -4.574968 17.042568 14.571529 38.071465 43.16023 -9.87282 59.792854 4.290198 49.226531 -75.316034 25.62986 -12.231675 54.193792 41.050001 52.940393 67.694204 67.394673 -157.990499 126.929404 72.225755 37.847195 -150.1513 3.598525 81.54727 67.750643 5.617486 -126.808408 133.124068 13.018889 -52.413666
-2.5278 63.5501 49.1397 -13.914389 -76.121072 20.151821 0.740491 1.228607 -122.328331 0.98046 -4.002373 143.454112 -10.234332 15.387217 -80.273087 28.104395 6.595788 77.06962 -28.725966 -17.294632 61.412788 -5.136087 -0.963797 21.24272 -144.092243 -53.316963 -176.809243 -61.696063 -39.81578 -75.170713 6.410284 26.313968 -131.443039 178.023802 -9.983828 141.765678 -21.129908 9.339329 -20.8392 -10.603729 9.951609 53.823482 -152.15018 -51.755571 137.692653 -166.011512 -45.490891 93.623225 -0.080541 -26.967406 -9.865337 5.930944 23.002685 6.223837 -4.786644 -7.845537 4.264353 20.269107 55.727391 -77.001046 -1.854596 -67.183162 -26.788428 144.777222 -65.467413 146.65537 -11.209918 -84.533892 5.750524 28.156443 -33.960401 86.958947 -150.914312 34.274959 83.754129 7.844359 34.423037 -4.782408 167.364782 -18.032258 -84.924056 -24.022901 -40.955066 -38.680655 142.191565 11.510492 -109.152288 2.209872 12.832525 -44.063066 -30.739843 -81.227923 8.004355 153.430449 -18.392168 -103.055902 2.770931 58.941979 -6.816547 -128.17972 -20.207958 153.974511 92.396448 -36.485797 75.078857 162.147622 -47.364504 169.093322 89.283221 49.743908 80.477551 -140.921661 62.398293 -177.652856 -28.254209 -51.004178 94.949748 36.505904 12.318404 20.990984 55.917293 39.636825 61.866347 -106.582373 -16.224602 58.841436 64.135192 -6.483737 -85.56199 81.649977 -7.204279 -19.213768
